<svg width="20" height="20" viewBox="0 0 20 20" fill="none" xmlns="http://www.w3.org/2000/svg">
<g opacity="0.67">
<path d="M8.39984 9.04971C8.4415 8.77471 8.53317 8.53305 8.64984 8.32471C8.7665 8.11638 8.93317 7.94138 9.1415 7.80805C9.3415 7.68305 9.5915 7.62472 9.89984 7.61638C10.0915 7.62472 10.2665 7.65805 10.4248 7.72472C10.5915 7.79972 10.7415 7.89971 10.8582 8.02471C10.9748 8.14971 11.0665 8.29972 11.1415 8.46638C11.2165 8.63305 11.2498 8.81638 11.2582 8.99972H12.7498C12.7332 8.60805 12.6582 8.24972 12.5165 7.92472C12.3748 7.59972 12.1832 7.31638 11.9332 7.08305C11.6832 6.84972 11.3832 6.66638 11.0332 6.53305C10.6832 6.39972 10.2998 6.34138 9.87484 6.34138C9.33317 6.34138 8.85817 6.43305 8.45817 6.62471C8.05817 6.81638 7.72484 7.06638 7.45817 7.39138C7.1915 7.71638 6.9915 8.09138 6.8665 8.52471C6.7415 8.95805 6.6665 9.40805 6.6665 9.89138V10.1164C6.6665 10.5997 6.73317 11.0497 6.85817 11.483C6.98317 11.9164 7.18317 12.2914 7.44984 12.608C7.7165 12.9247 8.04984 13.183 8.44984 13.3664C8.84984 13.5497 9.32484 13.6497 9.8665 13.6497C10.2582 13.6497 10.6248 13.583 10.9665 13.458C11.3082 13.333 11.6082 13.158 11.8665 12.933C12.1248 12.708 12.3332 12.4497 12.4832 12.1497C12.6332 11.8497 12.7248 11.533 12.7332 11.1914H11.2415C11.2332 11.3664 11.1915 11.5247 11.1165 11.6747C11.0415 11.8247 10.9415 11.9497 10.8165 12.058C10.6915 12.1664 10.5498 12.2497 10.3832 12.308C10.2248 12.3664 10.0582 12.383 9.88317 12.3914C9.58317 12.383 9.33317 12.3247 9.1415 12.1997C8.93317 12.0664 8.7665 11.8914 8.64984 11.683C8.53317 11.4747 8.4415 11.2247 8.39984 10.9497C8.35817 10.6747 8.33317 10.3914 8.33317 10.1164V9.89138C8.33317 9.59971 8.35817 9.32471 8.39984 9.04971ZM9.99984 1.66638C5.39984 1.66638 1.6665 5.39972 1.6665 9.99971C1.6665 14.5997 5.39984 18.333 9.99984 18.333C14.5998 18.333 18.3332 14.5997 18.3332 9.99971C18.3332 5.39972 14.5998 1.66638 9.99984 1.66638ZM9.99984 16.6664C6.32484 16.6664 3.33317 13.6747 3.33317 9.99971C3.33317 6.32472 6.32484 3.33305 9.99984 3.33305C13.6748 3.33305 16.6665 6.32472 16.6665 9.99971C16.6665 13.6747 13.6748 16.6664 9.99984 16.6664Z" fill="black"/>
</g>
</svg>
