<svg width="17" height="20" viewBox="0 0 17 20" fill="none" xmlns="http://www.w3.org/2000/svg">
<path d="M15.7857 1.25H1.21049C0.542634 1.25 0 1.81641 0 2.51172V17.4883C0 18.1836 0.542634 18.75 1.21049 18.75H15.7857C16.4536 18.75 17 18.1836 17 17.4883V2.51172C17 1.81641 16.4536 1.25 15.7857 1.25ZM5.13795 16.25H2.6183V7.89844H5.14174V16.25H5.13795ZM3.87812 6.75781C3.06987 6.75781 2.41719 6.08203 2.41719 5.25391C2.41719 4.42578 3.06987 3.75 3.87812 3.75C4.68259 3.75 5.33906 4.42578 5.33906 5.25391C5.33906 6.08594 4.68638 6.75781 3.87812 6.75781ZM14.5828 16.25H12.0632V12.1875C12.0632 11.2188 12.0442 9.97266 10.754 9.97266C9.44107 9.97266 9.23996 11.0273 9.23996 12.1172V16.25H6.72031V7.89844H9.1375V9.03906H9.17165C9.50937 8.38281 10.3328 7.69141 11.5585 7.69141C14.1085 7.69141 14.5828 9.42188 14.5828 11.6719V16.25Z" fill="black"/>
</svg>
